<?xml version="1.0" encoding="UTF-8" standalone="no"?><!DOCTYPE svg PUBLIC "-//W3C//DTD SVG 1.1//EN" "http://www.w3.org/Graphics/SVG/1.1/DTD/svg11.dtd"><svg width="100%" height="100%" viewBox="0 0 270 248" version="1.1" xmlns="http://www.w3.org/2000/svg" xmlns:xlink="http://www.w3.org/1999/xlink" xml:space="preserve" xmlns:serif="http://www.serif.com/" style="fill-rule:evenodd;clip-rule:evenodd;stroke-linejoin:round;stroke-miterlimit:2;"><path d="M193.532,170.357c-11.68,11.628 -33.375,27.824 -64.35,29.004c-1.879,0.164 -3.774,0.235 -5.679,0.235c-41.997,0 -76.093,-34.096 -76.093,-76.093c0,-41.997 34.096,-76.093 76.093,-76.093c25.397,0 49.12,12.671 63.243,33.779l39.404,-26.363c-22.922,-34.26 -61.426,-54.826 -102.647,-54.826c-2.563,0 -5.108,0.078 -7.628,0.242c-48.673,6.002 -103.96,46.689 -114.363,103.932c-0.997,6.293 -1.512,12.751 -1.512,19.329c-0,68.163 55.34,123.503 123.503,123.503c41.221,0 79.725,-20.565 102.647,-54.825l-32.618,-21.824Z"/><path d="M115.875,0.242c-48.667,6.003 -103.952,46.683 -114.363,103.932c8.902,-56.545 56.225,-100.392 114.363,-103.932Z" style="fill:#fff;"/><path d="M89.481,55.432c-63.817,28.466 -91.93,98.659 -40.906,166.228c-48.575,-47.342 -45.234,-137.762 40.906,-166.228Z" style="fill:#fff;"/><path d="M48.575,91.843c-29.006,45.006 -0,79.013 14.035,97.047c-23.087,-24.281 -45.48,-59.021 -14.035,-97.047Z" style="fill:#fff;"/><path d="M174.489,154.091l-80.997,-12.075l175.989,-61.676l-94.992,73.751Z"/><path d="M193.532,170.357l-6.786,-4.54c-13.063,19.525 -34.341,31.831 -57.564,33.544c30.979,-1.171 52.675,-17.378 64.35,-29.004Z" style="fill:#fff;"/><path d="M269.481,80.34l-175.989,61.676l-5.671,-0.845l181.666,-60.836l-0.006,0.005Z" style="fill:#fff;"/></svg>